<?xml version="1.0" encoding="UTF-8" standalone="no"?>
<!-- Created with Inkscape (http://www.inkscape.org/) -->

<svg
   width="46.307304mm"
   height="10.234051mm"
   viewBox="0 0 46.307304 10.234051"
   version="1.1"
   id="svg5542"
   sodipodi:docname="nVentory_logo.svg"
   inkscape:version="1.2 (dc2aeda, 2022-05-15)"
   inkscape:export-filename="../nVentory-frontend/src/assets/nVentory_logo.png"
   inkscape:export-xdpi="96"
   inkscape:export-ydpi="96"
   xmlns:inkscape="http://www.inkscape.org/namespaces/inkscape"
   xmlns:sodipodi="http://sodipodi.sourceforge.net/DTD/sodipodi-0.dtd"
   xmlns="http://www.w3.org/2000/svg"
   xmlns:svg="http://www.w3.org/2000/svg">
  <sodipodi:namedview
     id="namedview5544"
     pagecolor="#ffffff"
     bordercolor="#666666"
     borderopacity="1.0"
     inkscape:showpageshadow="2"
     inkscape:pageopacity="0.0"
     inkscape:pagecheckerboard="0"
     inkscape:deskcolor="#d1d1d1"
     inkscape:document-units="mm"
     showgrid="false"
     inkscape:zoom="1.8492885"
     inkscape:cx="18.385449"
     inkscape:cy="16.49283"
     inkscape:window-width="1467"
     inkscape:window-height="970"
     inkscape:window-x="116"
     inkscape:window-y="25"
     inkscape:window-maximized="0"
     inkscape:current-layer="text6500-7" />
  <defs
     id="defs5539" />
  <g
     inkscape:label="Layer 1"
     inkscape:groupmode="layer"
     id="layer1"
     transform="translate(-79.067465,-36.988485)">
    <text
       xml:space="preserve"
       style="font-style:normal;font-weight:normal;font-size:10.5833px;line-height:1.25;font-family:sans-serif;letter-spacing:-0.346604px;word-spacing:-0.0661458px;display:none;fill:#000000;fill-opacity:1;stroke:none;stroke-width:0.264583"
       x="78.411301"
       y="44.417961"
       id="text6500"><tspan
         sodipodi:role="line"
         id="tspan6498"
         style="font-style:normal;font-variant:normal;font-weight:bold;font-stretch:normal;font-size:10.5833px;font-family:Poppins;-inkscape-font-specification:'Poppins, Bold';font-variant-ligatures:normal;font-variant-caps:normal;font-variant-numeric:normal;font-variant-east-asian:normal;stroke-width:0.264583"
         x="0"
         y="0"
         dx="-0.90648901"><tspan
   style="font-style:normal;font-variant:normal;font-weight:bold;font-stretch:normal;font-size:10.5833px;font-family:Poppins;-inkscape-font-specification:'Poppins, Bold';font-variant-ligatures:normal;font-variant-caps:normal;font-variant-numeric:normal;font-variant-east-asian:normal"
   id="tspan6504"
   dx="0 -0.31999999">nV</tspan>entory</tspan></text>
    <g
       aria-label="nVentory"
       id="text6500-7"
       style="font-size:10.5833px;letter-spacing:-0.346604px;word-spacing:-0.0661458px;stroke-width:0.264583"
       inkscape:export-filename="nVentory_logo.png"
       inkscape:export-xdpi="96"
       inkscape:export-ydpi="96">
      <path
         d="m 82.665787,38.44898 q 1.037163,0 1.650995,0.677331 0.624415,0.666748 0.624415,1.841494 v 3.450156 h -1.799161 v -3.20674 q 0,-0.592664 -0.306916,-0.920747 -0.306916,-0.328082 -0.825497,-0.328082 -0.518582,0 -0.825498,0.328082 -0.306916,0.328083 -0.306916,0.920747 v 3.20674 H 79.067465 V 38.51248 h 1.809744 v 0.783164 q 0.275166,-0.391582 0.740831,-0.613831 0.465666,-0.232833 1.047747,-0.232833 z"
         style="-inkscape-font-specification:'Poppins, Bold'"
         id="path6833" />
      <path
         d="m 91.97923,36.988485 -2.635241,7.429476 h -2.264827 l -2.635241,-7.429476 h 1.92616 l 1.841495,5.609149 1.852077,-5.609149 z"
         style="-inkscape-font-specification:'Poppins, Bold'"
         id="path6835" />
      <path
         d="m 97.421684,41.369971 q 0,0.253999 -0.03175,0.529165 h -4.095737 q 0.04233,0.550331 0.349249,0.846664 0.317499,0.285749 0.772581,0.285749 0.677331,0 0.941914,-0.571498 h 1.92616 q -0.148166,0.582081 -0.539748,1.047746 -0.380999,0.465666 -0.96308,0.730248 -0.582082,0.264583 -1.301746,0.264583 -0.867831,0 -1.545162,-0.370416 -0.677331,-0.370415 -1.05833,-1.05833 -0.380998,-0.687914 -0.380998,-1.608661 0,-0.920748 0.370415,-1.608662 0.380999,-0.687914 1.05833,-1.05833 0.677331,-0.370415 1.555745,-0.370415 0.857247,0 1.523995,0.359832 0.666748,0.359832 1.037164,1.02658 0.380998,0.666748 0.380998,1.555745 z m -1.852077,-0.476249 q 0,-0.465665 -0.317499,-0.740831 -0.317499,-0.275165 -0.793748,-0.275165 -0.455081,0 -0.77258,0.264582 -0.306916,0.264583 -0.380999,0.751414 z"
         style="-inkscape-font-specification:'Poppins, Bold'"
         id="path6837" />
      <path
         d="m 101.62589,38.44898 q 1.03716,0 1.65099,0.677331 0.62441,0.666748 0.62441,1.841494 v 3.450156 h -1.79916 v -3.20674 q 0,-0.592664 -0.30691,-0.920747 -0.30692,-0.328082 -0.8255,-0.328082 -0.51858,0 -0.8255,0.328082 -0.306907,0.328083 -0.306907,0.920747 v 3.20674 H 98.02757 V 38.51248 h 1.809743 v 0.783164 q 0.275157,-0.391582 0.740827,-0.613831 0.46566,-0.232833 1.04775,-0.232833 z"
         style="-inkscape-font-specification:'Poppins, Bold'"
         id="path6839" />
      <path
         d="m 108.10551,42.883383 v 1.534578 h -0.92075 q -0.98425,0 -1.53458,-0.476248 -0.55033,-0.486832 -0.55033,-1.576912 v -2.349493 h -0.71966 V 38.51248 h 0.71966 v -1.439329 h 1.80974 v 1.439329 h 1.18533 v 1.502828 h -1.18533 v 2.37066 q 0,0.264582 0.127,0.380998 0.127,0.116417 0.42334,0.116417 z"
         style="-inkscape-font-specification:'Poppins, Bold'"
         id="path6841" />
      <path
         d="m 111.45246,44.502628 q -0.86783,0 -1.56633,-0.370416 -0.68792,-0.370415 -1.09008,-1.05833 -0.39158,-0.687914 -0.39158,-1.608661 0,-0.910164 0.40216,-1.598079 0.40217,-0.698497 1.10066,-1.068913 0.6985,-0.370415 1.56633,-0.370415 0.86783,0 1.56633,0.370415 0.6985,0.370416 1.10066,1.068913 0.40217,0.687915 0.40217,1.598079 0,0.910163 -0.41275,1.608661 -0.40216,0.687915 -1.11125,1.05833 -0.69849,0.370416 -1.56632,0.370416 z m 0,-1.566329 q 0.51858,0 0.87841,-0.380999 0.37042,-0.380998 0.37042,-1.090079 0,-0.709082 -0.35984,-1.09008 -0.34925,-0.380999 -0.86783,-0.380999 -0.52916,0 -0.87841,0.380999 -0.34925,0.370415 -0.34925,1.09008 0,0.709081 0.33867,1.090079 0.34924,0.380999 0.86783,0.380999 z"
         style="-inkscape-font-specification:'Poppins, Bold'"
         id="path6843" />
      <path
         d="m 116.96899,39.496727 q 0.3175,-0.486832 0.79375,-0.761998 0.47625,-0.285749 1.05833,-0.285749 v 1.915577 h -0.49742 q -0.67733,0 -1.016,0.296333 -0.33866,0.285749 -0.33866,1.015997 v 2.741074 h -1.80974 V 38.51248 h 1.80974 z"
         style="-inkscape-font-specification:'Poppins, Bold'"
         id="path6845" />
      <path
         d="m 125.37477,38.51248 -3.70415,8.710056 h -1.94733 l 1.35466,-3.005658 -2.40241,-5.704398 h 2.02141 l 1.36525,3.693571 1.35466,-3.693571 z"
         style="-inkscape-font-specification:'Poppins, Bold'"
         id="path6847" />
    </g>
  </g>
</svg>
