<svg width="13" height="16" viewBox="0 0 13 16" fill="none" xmlns="http://www.w3.org/2000/svg">
<circle cx="6.5" cy="8.5" r="6.5" fill="white"/>
<path d="M6.592 4.764C6.384 4.812 6.18 4.836 5.98 4.836C5.788 4.836 5.596 4.824 5.404 4.8C5.356 4.576 5.332 4.352 5.332 4.128C5.332 3.896 5.34 3.724 5.356 3.612C5.532 3.572 5.716 3.552 5.908 3.552C6.108 3.552 6.32 3.56 6.544 3.576C6.592 3.784 6.616 3.988 6.616 4.188C6.616 4.38 6.608 4.572 6.592 4.764ZM4.408 6.024C5.088 5.904 5.616 5.844 5.992 5.844C6.368 5.844 6.608 5.852 6.712 5.868C6.712 6.06 6.688 6.272 6.64 6.504C6.592 6.736 6.564 6.848 6.556 6.84L6.448 11.184L7.456 11.28C7.456 11.504 7.388 11.744 7.252 12H4.492L4.456 11.58C4.824 11.452 5.184 11.356 5.536 11.292C5.488 9.292 5.448 7.792 5.416 6.792C4.952 6.792 4.6 6.744 4.36 6.648L4.408 6.024Z" fill="#868686"/>
</svg>
